<mxfile host="Electron" agent="Mozilla/5.0 (Windows NT 10.0; Win64; x64) AppleWebKit/537.36 (KHTML, like Gecko) draw.io/24.7.17 Chrome/128.0.6613.36 Electron/32.0.1 Safari/537.36" version="24.7.17">
  <diagram name="Page-1" id="P79zyOFulwjqi3tKQ0LD">
    <mxGraphModel dx="7436" dy="4444" grid="1" gridSize="10" guides="1" tooltips="1" connect="1" arrows="1" fold="1" page="1" pageScale="1" pageWidth="850" pageHeight="1100" math="0" shadow="0">
      <root>
        <mxCell id="0" />
        <mxCell id="1" parent="0" />
        <mxCell id="sVZ9WJ4aluX9_R_HmSI6-7" value="" style="group" vertex="1" connectable="0" parent="1">
          <mxGeometry x="-1200" y="-110" width="1880" height="820" as="geometry" />
        </mxCell>
        <mxCell id="hWChYlvw1ACHeA7Pr1nv-30" value="" style="rounded=0;whiteSpace=wrap;html=1;" parent="sVZ9WJ4aluX9_R_HmSI6-7" vertex="1">
          <mxGeometry width="1880" height="820" as="geometry" />
        </mxCell>
        <mxCell id="BfYf3II-YOIZ9ueZyvOh-60" value="&lt;h1 style=&quot;margin-top: 0px;&quot;&gt;&lt;font style=&quot;font-size: 40px;&quot;&gt;Model Building Pipeline - Aspect Based Sentiment Analysis&lt;/font&gt;&lt;/h1&gt;&lt;p&gt;&lt;font style=&quot;font-size: 18px;&quot;&gt;2024-10-13 0833&lt;/font&gt;&lt;/p&gt;" style="text;html=1;whiteSpace=wrap;overflow=hidden;rounded=0;container=0;" parent="sVZ9WJ4aluX9_R_HmSI6-7" vertex="1">
          <mxGeometry x="55" y="33" width="568" height="198.5" as="geometry" />
        </mxCell>
        <mxCell id="jZZj9oB9UF0Xg4BrCCz5-1" value="Banking77" style="shape=cylinder3;whiteSpace=wrap;html=1;boundedLbl=1;backgroundOutline=1;size=15;fontStyle=1;fillColor=#6d8764;fontColor=#ffffff;strokeColor=#3A5431;container=0;" parent="sVZ9WJ4aluX9_R_HmSI6-7" vertex="1">
          <mxGeometry x="54" y="312" width="88" height="80" as="geometry" />
        </mxCell>
        <mxCell id="jZZj9oB9UF0Xg4BrCCz5-2" value="Minds14" style="shape=cylinder3;whiteSpace=wrap;html=1;boundedLbl=1;backgroundOutline=1;size=15;fontStyle=1;fillColor=#6d8764;fontColor=#ffffff;strokeColor=#3A5431;container=0;" parent="sVZ9WJ4aluX9_R_HmSI6-7" vertex="1">
          <mxGeometry x="54" y="444" width="88" height="80" as="geometry" />
        </mxCell>
        <mxCell id="jZZj9oB9UF0Xg4BrCCz5-3" value="Schema Guided Dialog" style="shape=cylinder3;whiteSpace=wrap;html=1;boundedLbl=1;backgroundOutline=1;size=15;fontStyle=1;fillColor=#6d8764;fontColor=#ffffff;strokeColor=#3A5431;container=0;" parent="sVZ9WJ4aluX9_R_HmSI6-7" vertex="1">
          <mxGeometry x="54" y="592" width="88" height="80" as="geometry" />
        </mxCell>
        <mxCell id="LpqaqeoBckt_q-niWc9P-1" value="" style="edgeStyle=orthogonalEdgeStyle;rounded=0;orthogonalLoop=1;jettySize=auto;html=1;" parent="sVZ9WJ4aluX9_R_HmSI6-7" source="jZZj9oB9UF0Xg4BrCCz5-4" target="jZZj9oB9UF0Xg4BrCCz5-37" edge="1">
          <mxGeometry relative="1" as="geometry" />
        </mxCell>
        <mxCell id="jZZj9oB9UF0Xg4BrCCz5-4" value="Call Center Dialog Data -&amp;nbsp;&lt;span style=&quot;font-size: 14px; background-color: initial;&quot;&gt;CCD&lt;/span&gt;&lt;div&gt;&lt;div&gt;Unlabeled&lt;/div&gt;&lt;/div&gt;" style="shape=cylinder3;whiteSpace=wrap;html=1;boundedLbl=1;backgroundOutline=1;size=15;fontStyle=1;fillColor=#d5e8d4;strokeColor=#82b366;container=0;" parent="sVZ9WJ4aluX9_R_HmSI6-7" vertex="1">
          <mxGeometry x="380" y="429" width="120" height="110" as="geometry" />
        </mxCell>
        <mxCell id="jZZj9oB9UF0Xg4BrCCz5-6" value="&lt;font style=&quot;font-size: 10px;&quot;&gt;Schema Guided Dialog&lt;/font&gt;&lt;div style=&quot;font-size: 10px;&quot;&gt;&lt;span style=&quot;&quot;&gt;&lt;font style=&quot;font-size: 10px;&quot;&gt;(Banks_1)&lt;/font&gt;&lt;/span&gt;&lt;/div&gt;" style="shape=cylinder3;whiteSpace=wrap;html=1;boundedLbl=1;backgroundOutline=1;size=15;fontStyle=1;fillColor=#6d8764;fontColor=#ffffff;strokeColor=#3A5431;container=0;" parent="sVZ9WJ4aluX9_R_HmSI6-7" vertex="1">
          <mxGeometry x="201" y="592" width="92" height="80" as="geometry" />
        </mxCell>
        <mxCell id="jZZj9oB9UF0Xg4BrCCz5-7" style="rounded=0;orthogonalLoop=1;jettySize=auto;html=1;entryX=0;entryY=0.5;entryDx=0;entryDy=0;entryPerimeter=0;" parent="sVZ9WJ4aluX9_R_HmSI6-7" source="jZZj9oB9UF0Xg4BrCCz5-1" target="jZZj9oB9UF0Xg4BrCCz5-4" edge="1">
          <mxGeometry relative="1" as="geometry" />
        </mxCell>
        <mxCell id="jZZj9oB9UF0Xg4BrCCz5-8" style="edgeStyle=orthogonalEdgeStyle;rounded=0;orthogonalLoop=1;jettySize=auto;html=1;entryX=0;entryY=0.5;entryDx=0;entryDy=0;entryPerimeter=0;fontStyle=1" parent="sVZ9WJ4aluX9_R_HmSI6-7" source="jZZj9oB9UF0Xg4BrCCz5-2" target="jZZj9oB9UF0Xg4BrCCz5-4" edge="1">
          <mxGeometry relative="1" as="geometry" />
        </mxCell>
        <mxCell id="jZZj9oB9UF0Xg4BrCCz5-11" style="rounded=0;orthogonalLoop=1;jettySize=auto;html=1;entryX=0;entryY=0.5;entryDx=0;entryDy=0;entryPerimeter=0;exitX=1;exitY=0.5;exitDx=0;exitDy=0;exitPerimeter=0;fontStyle=1" parent="sVZ9WJ4aluX9_R_HmSI6-7" source="jZZj9oB9UF0Xg4BrCCz5-6" target="jZZj9oB9UF0Xg4BrCCz5-4" edge="1">
          <mxGeometry relative="1" as="geometry" />
        </mxCell>
        <mxCell id="RQIpVaN5L95fhUwLe6kF-14" style="rounded=0;orthogonalLoop=1;jettySize=auto;html=1;entryX=0;entryY=0.5;entryDx=0;entryDy=0;" parent="sVZ9WJ4aluX9_R_HmSI6-7" source="jZZj9oB9UF0Xg4BrCCz5-18" target="RQIpVaN5L95fhUwLe6kF-7" edge="1">
          <mxGeometry relative="1" as="geometry" />
        </mxCell>
        <mxCell id="jZZj9oB9UF0Xg4BrCCz5-18" value="Sentiment&lt;div&gt;Classifier&lt;/div&gt;" style="shape=label;whiteSpace=wrap;html=1;backgroundOutline=1;fontStyle=1;fillColor=#f8cecc;gradientColor=#ea6b66;strokeColor=#b85450;rounded=1;container=0;" parent="sVZ9WJ4aluX9_R_HmSI6-7" vertex="1">
          <mxGeometry x="1439" y="659.5" width="120" height="60" as="geometry" />
        </mxCell>
        <mxCell id="axLFGrxMXmui5NSBCtbJ-21" value="Train 5 Levels&lt;div&gt;of Polarity&lt;/div&gt;" style="rounded=0;orthogonalLoop=1;jettySize=auto;html=1;entryX=0;entryY=0.5;entryDx=0;entryDy=0;" parent="sVZ9WJ4aluX9_R_HmSI6-7" source="jZZj9oB9UF0Xg4BrCCz5-19" target="jZZj9oB9UF0Xg4BrCCz5-18" edge="1">
          <mxGeometry relative="1" as="geometry" />
        </mxCell>
        <mxCell id="jZZj9oB9UF0Xg4BrCCz5-19" value="&lt;font style=&quot;font-size: 12px;&quot;&gt;Stanford Sentiment Treebank-5&lt;/font&gt;&lt;div style=&quot;&quot;&gt;&lt;font style=&quot;font-size: 12px;&quot;&gt;Labeled&lt;/font&gt;&lt;/div&gt;" style="shape=cylinder3;whiteSpace=wrap;html=1;boundedLbl=1;backgroundOutline=1;size=15;fontStyle=1;fillColor=#fff2cc;strokeColor=#d6b656;container=0;" parent="sVZ9WJ4aluX9_R_HmSI6-7" vertex="1">
          <mxGeometry x="1185" y="634.5" width="120" height="110" as="geometry" />
        </mxCell>
        <mxCell id="RQIpVaN5L95fhUwLe6kF-2" value="" style="edgeStyle=orthogonalEdgeStyle;rounded=0;orthogonalLoop=1;jettySize=auto;html=1;" parent="sVZ9WJ4aluX9_R_HmSI6-7" source="jZZj9oB9UF0Xg4BrCCz5-35" target="RQIpVaN5L95fhUwLe6kF-1" edge="1">
          <mxGeometry relative="1" as="geometry" />
        </mxCell>
        <mxCell id="jZZj9oB9UF0Xg4BrCCz5-35" value="&lt;div&gt;&lt;div&gt;&lt;span&gt;CCD&lt;/span&gt;&lt;/div&gt;&lt;div&gt;Unlabeled&lt;/div&gt;&lt;/div&gt;" style="shape=cylinder3;whiteSpace=wrap;html=1;boundedLbl=1;backgroundOutline=1;size=15;fontStyle=1;fillColor=#d5e8d4;strokeColor=#82b366;container=0;" parent="sVZ9WJ4aluX9_R_HmSI6-7" vertex="1">
          <mxGeometry x="762" y="429" width="120" height="110" as="geometry" />
        </mxCell>
        <mxCell id="jZZj9oB9UF0Xg4BrCCz5-39" style="edgeStyle=orthogonalEdgeStyle;rounded=0;orthogonalLoop=1;jettySize=auto;html=1;" parent="sVZ9WJ4aluX9_R_HmSI6-7" source="jZZj9oB9UF0Xg4BrCCz5-37" target="jZZj9oB9UF0Xg4BrCCz5-35" edge="1">
          <mxGeometry relative="1" as="geometry" />
        </mxCell>
        <mxCell id="jZZj9oB9UF0Xg4BrCCz5-37" value="Cleaning&lt;div&gt;and Prep&lt;/div&gt;" style="rounded=0;whiteSpace=wrap;html=1;fontStyle=1;fillColor=#dae8fc;strokeColor=#6c8ebf;container=0;" parent="sVZ9WJ4aluX9_R_HmSI6-7" vertex="1">
          <mxGeometry x="572" y="454" width="120" height="60" as="geometry" />
        </mxCell>
        <mxCell id="BfYf3II-YOIZ9ueZyvOh-27" style="edgeStyle=orthogonalEdgeStyle;rounded=0;orthogonalLoop=1;jettySize=auto;html=1;entryX=0;entryY=0.5;entryDx=0;entryDy=0;entryPerimeter=0;fontStyle=1" parent="sVZ9WJ4aluX9_R_HmSI6-7" source="jZZj9oB9UF0Xg4BrCCz5-3" target="jZZj9oB9UF0Xg4BrCCz5-6" edge="1">
          <mxGeometry relative="1" as="geometry" />
        </mxCell>
        <mxCell id="BfYf3II-YOIZ9ueZyvOh-51" value="split" style="edgeLabel;html=1;align=center;verticalAlign=middle;resizable=0;points=[];container=0;" parent="BfYf3II-YOIZ9ueZyvOh-27" vertex="1" connectable="0">
          <mxGeometry x="0.2933" y="-2" relative="1" as="geometry">
            <mxPoint x="-24" y="-19" as="offset" />
          </mxGeometry>
        </mxCell>
        <mxCell id="6Sepv1CaMpXmbwAgmxQY-1" value="&lt;b style=&quot;font-size: 18px;&quot;&gt;&lt;font style=&quot;font-size: 18px;&quot;&gt;3.3.1&lt;/font&gt;&lt;/b&gt;" style="text;html=1;align=center;verticalAlign=middle;whiteSpace=wrap;rounded=0;container=0;fontSize=18;" parent="sVZ9WJ4aluX9_R_HmSI6-7" vertex="1">
          <mxGeometry x="410" y="399" width="60" height="30" as="geometry" />
        </mxCell>
        <mxCell id="RQIpVaN5L95fhUwLe6kF-12" style="rounded=0;orthogonalLoop=1;jettySize=auto;html=1;entryX=0;entryY=0.5;entryDx=0;entryDy=0;" parent="sVZ9WJ4aluX9_R_HmSI6-7" source="IyR-YoxLzFLTfczClJ5U-72" target="RQIpVaN5L95fhUwLe6kF-7" edge="1">
          <mxGeometry relative="1" as="geometry" />
        </mxCell>
        <mxCell id="IyR-YoxLzFLTfczClJ5U-72" value="Product/Service&lt;div&gt;Classifier&lt;/div&gt;" style="shape=label;whiteSpace=wrap;html=1;backgroundOutline=1;fontStyle=1;fillColor=#ffcccc;strokeColor=#36393d;rounded=1;container=0;" parent="sVZ9WJ4aluX9_R_HmSI6-7" vertex="1">
          <mxGeometry x="1439" y="248.5" width="120" height="60" as="geometry" />
        </mxCell>
        <mxCell id="RQIpVaN5L95fhUwLe6kF-13" style="edgeStyle=orthogonalEdgeStyle;rounded=0;orthogonalLoop=1;jettySize=auto;html=1;entryX=0;entryY=0.5;entryDx=0;entryDy=0;" parent="sVZ9WJ4aluX9_R_HmSI6-7" source="IyR-YoxLzFLTfczClJ5U-82" target="RQIpVaN5L95fhUwLe6kF-7" edge="1">
          <mxGeometry relative="1" as="geometry" />
        </mxCell>
        <mxCell id="IyR-YoxLzFLTfczClJ5U-82" value="Intent/Action&lt;div&gt;Classifier&lt;/div&gt;" style="shape=label;whiteSpace=wrap;html=1;backgroundOutline=1;fontStyle=1;fillColor=#ffcccc;strokeColor=#36393d;rounded=1;container=0;" parent="sVZ9WJ4aluX9_R_HmSI6-7" vertex="1">
          <mxGeometry x="1439" y="454.5" width="120" height="60" as="geometry" />
        </mxCell>
        <mxCell id="axLFGrxMXmui5NSBCtbJ-37" value="train data" style="rounded=0;orthogonalLoop=1;jettySize=auto;html=1;entryX=0;entryY=0.5;entryDx=0;entryDy=0;exitX=1;exitY=0.5;exitDx=0;exitDy=0;exitPerimeter=0;" parent="sVZ9WJ4aluX9_R_HmSI6-7" source="axLFGrxMXmui5NSBCtbJ-36" target="IyR-YoxLzFLTfczClJ5U-82" edge="1">
          <mxGeometry x="-0.0299" y="14" relative="1" as="geometry">
            <mxPoint as="offset" />
          </mxGeometry>
        </mxCell>
        <mxCell id="RQIpVaN5L95fhUwLe6kF-5" value="train data" style="rounded=0;orthogonalLoop=1;jettySize=auto;html=1;entryX=0;entryY=0.5;entryDx=0;entryDy=0;exitX=1;exitY=0.5;exitDx=0;exitDy=0;exitPerimeter=0;" parent="sVZ9WJ4aluX9_R_HmSI6-7" source="axLFGrxMXmui5NSBCtbJ-36" target="jZZj9oB9UF0Xg4BrCCz5-18" edge="1">
          <mxGeometry relative="1" as="geometry" />
        </mxCell>
        <mxCell id="axLFGrxMXmui5NSBCtbJ-36" value="&lt;div&gt;&lt;span&gt;CCD&lt;/span&gt;&lt;/div&gt;&lt;div&gt;&lt;u&gt;Labeled&lt;/u&gt;&lt;/div&gt;&lt;div&gt;Data&lt;/div&gt;" style="shape=cylinder3;whiteSpace=wrap;html=1;boundedLbl=1;backgroundOutline=1;size=15;fontStyle=1;fillColor=#fff2cc;strokeColor=#d6b656;container=0;" parent="sVZ9WJ4aluX9_R_HmSI6-7" vertex="1">
          <mxGeometry x="1185" y="429" width="120" height="110" as="geometry" />
        </mxCell>
        <mxCell id="axLFGrxMXmui5NSBCtbJ-42" value="train data" style="rounded=0;orthogonalLoop=1;jettySize=auto;html=1;entryX=1;entryY=0.5;entryDx=0;entryDy=0;entryPerimeter=0;endArrow=none;endFill=0;startArrow=classic;startFill=1;" parent="sVZ9WJ4aluX9_R_HmSI6-7" source="IyR-YoxLzFLTfczClJ5U-72" target="axLFGrxMXmui5NSBCtbJ-36" edge="1">
          <mxGeometry x="-0.0031" y="-1" relative="1" as="geometry">
            <mxPoint as="offset" />
          </mxGeometry>
        </mxCell>
        <mxCell id="axLFGrxMXmui5NSBCtbJ-45" value="&lt;b style=&quot;font-size: 18px;&quot;&gt;&lt;font style=&quot;font-size: 18px;&quot;&gt;3.3.6.1&lt;/font&gt;&lt;/b&gt;" style="text;html=1;align=center;verticalAlign=middle;whiteSpace=wrap;rounded=0;container=0;fontSize=18;" parent="sVZ9WJ4aluX9_R_HmSI6-7" vertex="1">
          <mxGeometry x="1453" y="218.5" width="80" height="30" as="geometry" />
        </mxCell>
        <mxCell id="axLFGrxMXmui5NSBCtbJ-49" value="&lt;b style=&quot;font-size: 18px;&quot;&gt;&lt;font style=&quot;font-size: 18px;&quot;&gt;3.3.6.3&lt;/font&gt;&lt;/b&gt;" style="text;html=1;align=center;verticalAlign=middle;whiteSpace=wrap;rounded=0;container=0;fontSize=18;" parent="sVZ9WJ4aluX9_R_HmSI6-7" vertex="1">
          <mxGeometry x="1452" y="632" width="80" height="30" as="geometry" />
        </mxCell>
        <mxCell id="b8pBMryv-TpW3NfzC7TZ-2" value="&lt;b style=&quot;font-size: 18px;&quot;&gt;&lt;font style=&quot;font-size: 18px;&quot;&gt;3.3.6.2&lt;/font&gt;&lt;/b&gt;" style="text;html=1;align=center;verticalAlign=middle;whiteSpace=wrap;rounded=0;container=0;fontSize=18;" parent="sVZ9WJ4aluX9_R_HmSI6-7" vertex="1">
          <mxGeometry x="1453" y="424" width="80" height="30" as="geometry" />
        </mxCell>
        <mxCell id="LpqaqeoBckt_q-niWc9P-4" value="&lt;b style=&quot;font-size: 18px;&quot;&gt;&lt;font style=&quot;font-size: 18px;&quot;&gt;3.3.5&lt;/font&gt;&lt;/b&gt;" style="text;html=1;align=center;verticalAlign=middle;whiteSpace=wrap;rounded=0;strokeColor=none;container=0;fontSize=18;" parent="sVZ9WJ4aluX9_R_HmSI6-7" vertex="1">
          <mxGeometry x="1170" y="399" width="80" height="30" as="geometry" />
        </mxCell>
        <mxCell id="LpqaqeoBckt_q-niWc9P-5" value="&lt;b style=&quot;font-size: 18px;&quot;&gt;&lt;font style=&quot;font-size: 18px;&quot;&gt;3.3.2&lt;/font&gt;&lt;/b&gt;" style="text;html=1;align=center;verticalAlign=middle;whiteSpace=wrap;rounded=0;container=0;fontSize=18;" parent="sVZ9WJ4aluX9_R_HmSI6-7" vertex="1">
          <mxGeometry x="602" y="424" width="60" height="30" as="geometry" />
        </mxCell>
        <mxCell id="RQIpVaN5L95fhUwLe6kF-4" value="" style="edgeStyle=orthogonalEdgeStyle;rounded=0;orthogonalLoop=1;jettySize=auto;html=1;" parent="sVZ9WJ4aluX9_R_HmSI6-7" source="RQIpVaN5L95fhUwLe6kF-1" target="axLFGrxMXmui5NSBCtbJ-36" edge="1">
          <mxGeometry relative="1" as="geometry" />
        </mxCell>
        <mxCell id="RQIpVaN5L95fhUwLe6kF-1" value="LLM Automated Data Labeling" style="rounded=1;whiteSpace=wrap;html=1;fontStyle=1;fillColor=#dae8fc;strokeColor=#6c8ebf;container=0;" parent="sVZ9WJ4aluX9_R_HmSI6-7" vertex="1">
          <mxGeometry x="960" y="454" width="120" height="60" as="geometry" />
        </mxCell>
        <mxCell id="RQIpVaN5L95fhUwLe6kF-3" value="&lt;b style=&quot;font-size: 18px;&quot;&gt;&lt;font style=&quot;font-size: 18px;&quot;&gt;3.3.3&lt;/font&gt;&lt;/b&gt;" style="text;html=1;align=center;verticalAlign=middle;whiteSpace=wrap;rounded=0;container=0;fontSize=18;" parent="sVZ9WJ4aluX9_R_HmSI6-7" vertex="1">
          <mxGeometry x="990" y="424" width="60" height="30" as="geometry" />
        </mxCell>
        <mxCell id="RQIpVaN5L95fhUwLe6kF-7" value="Aspect Topic&lt;div&gt;Module&lt;/div&gt;" style="rounded=1;whiteSpace=wrap;html=1;fillColor=#f8cecc;strokeColor=#b85450;fontStyle=1" parent="sVZ9WJ4aluX9_R_HmSI6-7" vertex="1">
          <mxGeometry x="1700" y="455" width="120" height="60" as="geometry" />
        </mxCell>
        <mxCell id="RQIpVaN5L95fhUwLe6kF-15" value="&lt;b style=&quot;font-size: 18px;&quot;&gt;&lt;font style=&quot;font-size: 18px;&quot;&gt;3.4.2&lt;/font&gt;&lt;/b&gt;" style="text;html=1;align=center;verticalAlign=middle;whiteSpace=wrap;rounded=0;container=0;fontSize=18;" parent="sVZ9WJ4aluX9_R_HmSI6-7" vertex="1">
          <mxGeometry x="1720" y="424" width="80" height="30" as="geometry" />
        </mxCell>
        <mxCell id="sVZ9WJ4aluX9_R_HmSI6-1" value="Synthetic Multi-turn Dialog Generation" style="rounded=1;whiteSpace=wrap;html=1;fontStyle=1;fillColor=#dae8fc;strokeColor=#6c8ebf;container=0;" vertex="1" parent="sVZ9WJ4aluX9_R_HmSI6-7">
          <mxGeometry x="960" y="659.5" width="120" height="60" as="geometry" />
        </mxCell>
        <mxCell id="sVZ9WJ4aluX9_R_HmSI6-2" value="&lt;b style=&quot;font-size: 18px;&quot;&gt;&lt;font style=&quot;font-size: 18px;&quot;&gt;3.3.4&lt;/font&gt;&lt;/b&gt;" style="text;html=1;align=center;verticalAlign=middle;whiteSpace=wrap;rounded=0;container=0;fontSize=18;" vertex="1" parent="sVZ9WJ4aluX9_R_HmSI6-7">
          <mxGeometry x="990" y="630" width="60" height="30" as="geometry" />
        </mxCell>
        <mxCell id="sVZ9WJ4aluX9_R_HmSI6-3" style="edgeStyle=orthogonalEdgeStyle;rounded=0;orthogonalLoop=1;jettySize=auto;html=1;entryX=0;entryY=0.5;entryDx=0;entryDy=0;entryPerimeter=0;" edge="1" parent="sVZ9WJ4aluX9_R_HmSI6-7" source="sVZ9WJ4aluX9_R_HmSI6-1" target="axLFGrxMXmui5NSBCtbJ-36">
          <mxGeometry relative="1" as="geometry" />
        </mxCell>
      </root>
    </mxGraphModel>
  </diagram>
</mxfile>
